<?xml version="1.0" encoding="UTF-8" standalone="no"?>
<!-- Created with Inkscape (http://www.inkscape.org/) -->

<svg
   width="48"
   height="24"
   viewBox="0 0 12.7 6.35"
   version="1.1"
   id="svg1"
   inkscape:version="1.3.2 (091e20ef0f, 2023-11-25)"
   sodipodi:docname="style-dark.svg"
   xmlns:inkscape="http://www.inkscape.org/namespaces/inkscape"
   xmlns:sodipodi="http://sodipodi.sourceforge.net/DTD/sodipodi-0.dtd"
   xmlns="http://www.w3.org/2000/svg"
   xmlns:svg="http://www.w3.org/2000/svg">
  <sodipodi:namedview
     id="namedview1"
     pagecolor="#ffffff"
     bordercolor="#000000"
     borderopacity="0.25"
     inkscape:showpageshadow="2"
     inkscape:pageopacity="0.0"
     inkscape:pagecheckerboard="0"
     inkscape:deskcolor="#d1d1d1"
     inkscape:document-units="mm"
     inkscape:zoom="12.101347"
     inkscape:cx="26.154113"
     inkscape:cy="15.204919"
     inkscape:window-width="1366"
     inkscape:window-height="736"
     inkscape:window-x="2023"
     inkscape:window-y="166"
     inkscape:window-maximized="0"
     inkscape:current-layer="g1" />
  <defs
     id="defs1" />
  <g
     inkscape:label="Camada 1"
     inkscape:groupmode="layer"
     id="layer1">
    <g
       id="g1"
       transform="matrix(0.98980227,0,0,1.0002599,-14.538404,1.0559987)">
      <path
         d="m 24.379278,2.7909465 q 0.280113,0 0.476192,-0.1960794 0.19608,-0.1960794 0.19608,-0.4761926 0,-0.2801134 -0.19608,-0.4761927 -0.196079,-0.1960793 -0.476192,-0.1960793 -0.280113,0 -0.476192,0.1960793 -0.19608,0.1960793 -0.19608,0.4761927 0,0.2801132 0.19608,0.4761926 0.196079,0.1960794 0.476192,0.1960794 z m 0,0.448181 q -0.464988,0 -0.79272,-0.3277323 -0.327733,-0.3277326 -0.327733,-0.7927207 0,-0.4649882 0.327733,-0.7927208 0.327732,-0.32773262 0.79272,-0.32773262 0.464988,0 0.79272,0.32773262 0.327733,0.3277326 0.327733,0.7927208 0,0.4649881 -0.327733,0.7927207 -0.327732,0.3277323 -0.79272,0.3277323 z M 22.810644,2.3427651 H 21.914281 V 1.8945837 h 0.896363 z m 4.033631,0 H 25.947912 V 1.8945837 h 0.896363 z M 24.155188,0.55003972 v -0.89636264 h 0.448181 v 0.89636264 z m 0,4.03363178 V 3.6873091 h 0.448181 V 4.5836715 Z M 23.124371,1.1662891 22.558542,0.6228692 22.877871,0.29233548 23.415688,0.85256212 Z m 2.756314,2.7787244 -0.54342,-0.565829 0.29692,-0.3081248 0.565829,0.5434196 z M 25.331663,0.86376669 25.875083,0.29793777 26.205617,0.61726692 25.64539,1.1550845 Z m -2.778724,2.75631521 0.565829,-0.5434199 0.308125,0.2969199 -0.54342,0.565829 z m 1.826339,-1.5014074 z"
         id="path1-8"
         style="fill:#ffffff;fill-opacity:1;stroke-width:0.00560226" />
      <rect
         style="fill:none;stroke:#ffffff;stroke-width:0.257;stroke-linecap:round;stroke-linejoin:bevel;stroke-dasharray:none;stroke-opacity:1"
         id="rect1-9"
         width="12.443448"
         height="6.0934477"
         x="14.946259"
         y="-0.92804945"
         ry="3.0467238" />
      <ellipse
         style="fill:#ffffff;fill-opacity:1;stroke:#ffffff;stroke-width:0.514479;stroke-linecap:round;stroke-linejoin:bevel;stroke-dasharray:none;stroke-opacity:1"
         id="path2-2"
         cx="17.956686"
         cy="2.1186743"
         rx="3.0104268"
         ry="2.915977" />
      <path
         d="m 17.956713,4.1548896 q -0.848423,0 -1.44232,-0.5938958 -0.593895,-0.5938966 -0.593895,-1.4423196 0,-0.848423 0.593895,-1.44231916 0.593897,-0.59389606 1.44232,-0.59389606 0.07918,0 0.155544,0.005652 0.07636,0.005652 0.149888,0.0169687 -0.231902,0.16402844 -0.370478,0.42703954 -0.138576,0.26301119 -0.138576,0.56844348 0,0.5090539 0.356338,0.8653915 0.356338,0.3563377 0.865391,0.3563377 0.311089,0 0.571272,-0.1385758 0.260183,-0.1385758 0.424212,-0.370478 0.01131,0.07353 0.01697,0.149888 0.0056,0.076358 0.0056,0.1555442 0,0.848423 -0.593896,1.442319 -0.593892,0.5939001 -1.442315,0.5939001 z m 0,-0.4524925 q 0.497741,0 0.893672,-0.2743232 0.395931,-0.2743236 0.576928,-0.7155036 -0.113124,0.028281 -0.226247,0.04525 -0.113122,0.016969 -0.226246,0.016969 -0.695707,0 -1.184964,-0.4892573 -0.489257,-0.4892572 -0.489257,-1.1849641 0,-0.11312311 0.01697,-0.2262462 0.01696,-0.11312301 0.04525,-0.2262461 -0.44118,0.18099685 -0.715504,0.5769276 -0.274323,0.3959307 -0.274323,0.8936722 0,0.6561138 0.463805,1.1199186 0.463804,0.4638047 1.119919,0.4638039 z m -0.05656,-1.5271614 z"
         id="path1-2-7"
         style="fill:#000000;fill-opacity:1;stroke-width:0.00565615" />
    </g>
  </g>
</svg>
