<?xml version="1.0" encoding="UTF-8" standalone="no"?>
<!-- Created with Inkscape (http://www.inkscape.org/) -->

<svg
   width="48"
   height="24"
   viewBox="0 0 12.7 6.35"
   version="1.1"
   id="svg1"
   xml:space="preserve"
   inkscape:version="1.3.2 (091e20ef0f, 2023-11-25)"
   sodipodi:docname="style-light.svg"
   xmlns:inkscape="http://www.inkscape.org/namespaces/inkscape"
   xmlns:sodipodi="http://sodipodi.sourceforge.net/DTD/sodipodi-0.dtd"
   xmlns="http://www.w3.org/2000/svg"
   xmlns:svg="http://www.w3.org/2000/svg"><sodipodi:namedview
     id="namedview1"
     pagecolor="#ffffff"
     bordercolor="#000000"
     borderopacity="0.25"
     inkscape:showpageshadow="2"
     inkscape:pageopacity="0.0"
     inkscape:pagecheckerboard="0"
     inkscape:deskcolor="#d1d1d1"
     inkscape:document-units="mm"
     inkscape:zoom="8.5569444"
     inkscape:cx="40.960883"
     inkscape:cy="11.102094"
     inkscape:window-width="1366"
     inkscape:window-height="736"
     inkscape:window-x="2392"
     inkscape:window-y="193"
     inkscape:window-maximized="0"
     inkscape:current-layer="g2" /><defs
     id="defs1" /><g
     inkscape:label="Camada 1"
     inkscape:groupmode="layer"
     id="layer1"><g
       id="g2"
       transform="matrix(1.0000716,0,0,1.0000473,-14.819498,1.0572746)"><rect
         style="fill:none;stroke:#000000;stroke-width:0.257;stroke-linecap:round;stroke-linejoin:bevel;stroke-dasharray:none;stroke-opacity:1"
         id="rect1-9"
         width="12.443448"
         height="6.0934477"
         x="14.946259"
         y="-0.92804945"
         ry="3.0467238" /><ellipse
         style="fill:#000000;fill-opacity:1;stroke:#000000;stroke-width:0.514479;stroke-linecap:round;stroke-linejoin:bevel;stroke-dasharray:none;stroke-opacity:1"
         id="path2-2"
         cx="24.25054"
         cy="2.116667"
         rx="3.0104268"
         ry="2.915977" /><path
         d="m 24.250539,2.7889393 q 0.280114,0 0.476192,-0.196079 0.196081,-0.1960801 0.196081,-0.4761933 0,-0.2801131 -0.196081,-0.4761922 -0.196078,-0.196079 -0.476192,-0.196079 -0.280112,0 -0.476192,0.196079 -0.196079,0.1960791 -0.196079,0.4761922 0,0.2801132 0.196079,0.4761933 0.19608,0.196079 0.476192,0.196079 z m 0,0.4481815 q -0.464988,0 -0.79272,-0.3277328 -0.327733,-0.3277328 -0.327733,-0.792721 0,-0.4649881 0.327733,-0.7927199 0.327732,-0.32773285 0.79272,-0.32773285 0.464989,0 0.79272,0.32773285 0.327733,0.3277318 0.327733,0.7927199 0,0.4649882 -0.327733,0.792721 -0.327731,0.3277328 -0.79272,0.3277328 z M 22.681906,2.3407578 H 21.785543 V 1.8925763 h 0.896363 z m 4.033631,0 H 25.819174 V 1.8925763 h 0.896363 z M 24.02645,0.54803273 v -0.8963631 h 0.44818 v 0.8963631 z m 0,4.03363167 v -0.896362 h 0.44818 v 0.896362 z M 22.995633,1.1642816 22.429804,0.6208618 22.749132,0.2903287 23.28695,0.8505551 Z m 2.756313,2.7787248 -0.54342,-0.565829 0.29692,-0.3081249 0.56583,0.5434198 z M 25.202924,0.86175919 25.746345,0.29593024 26.076879,0.61526025 25.516652,1.1530775 Z M 22.424201,3.6180748 22.99003,3.0746551 23.298154,3.3715749 22.754734,3.9374038 Z M 24.250539,2.116667 Z"
         id="path1-8"
         style="fill:#ffffff;fill-opacity:1;stroke-width:0.00560226" /><path
         d="m 17.956713,4.1548896 q -0.848423,0 -1.44232,-0.5938958 -0.593895,-0.5938966 -0.593895,-1.4423196 0,-0.848423 0.593895,-1.44231916 0.593897,-0.59389606 1.44232,-0.59389606 0.07918,0 0.155544,0.005652 0.07636,0.005652 0.149888,0.0169687 -0.231902,0.16402844 -0.370478,0.42703954 -0.138576,0.26301119 -0.138576,0.56844348 0,0.5090539 0.356338,0.8653915 0.356338,0.3563377 0.865391,0.3563377 0.311089,0 0.571272,-0.1385758 0.260183,-0.1385758 0.424212,-0.370478 0.01131,0.07353 0.01697,0.149888 0.0056,0.076358 0.0056,0.1555442 0,0.848423 -0.593896,1.442319 -0.593892,0.5939001 -1.442315,0.5939001 z m 0,-0.4524925 q 0.497741,0 0.893672,-0.2743232 0.395931,-0.2743236 0.576928,-0.7155036 -0.113124,0.028281 -0.226247,0.04525 -0.113122,0.016969 -0.226246,0.016969 -0.695707,0 -1.184964,-0.4892573 -0.489257,-0.4892572 -0.489257,-1.1849641 0,-0.11312311 0.01697,-0.2262462 0.01696,-0.11312301 0.04525,-0.2262461 -0.44118,0.18099685 -0.715504,0.5769276 -0.274323,0.3959307 -0.274323,0.8936722 0,0.6561138 0.463805,1.1199186 0.463804,0.4638047 1.119919,0.4638039 z m -0.05656,-1.5271614 z"
         id="path1-2-7"
         style="fill:#000000;fill-opacity:1;stroke-width:0.00565615" /></g></g></svg>
